# xmcd
#
# Track frame offsets:
#	150
#	17951
#	34884
#	47602
#	57059
#	70674
#	87016
#	103081
#	113232
#	128995
#
# Disc length: 2020 seconds
# Revision: 0
# Processed by: cddbd v1.5.2PL0 Copyright (c) Steve Scherf et al.
# Submitted via: dBpowerAMP V12.0
#
DISCID=8007e20a
DTITLE=Sugarcane Jane - All Time High
DYEAR=1900
DGENRE=Americcana
TTITLE0=All Time High
TTITLE1=Mrs. Robinson
TTITLE2=Find the Good
TTITLE3=California Dreamin'
TTITLE4=Good Wolf
TTITLE5=Savana's Dream
TTITLE6=Slow It Down
TTITLE7=Ultimate Prize
TTITLE8=Not Looking
TTITLE9=Young Love
EXTD=
EXTT0=
EXTT1=
EXTT2=
EXTT3=
EXTT4=
EXTT5=
EXTT6=
EXTT7=
EXTT8=
EXTT9=
PLAYORDER=
